<svg width="677" height="450" viewBox="0 0 677 450" fill="none" xmlns="http://www.w3.org/2000/svg">
<rect y="0.65918" width="676.919" height="448.904" rx="17.7679" fill="#212E37"/>
<path d="M67.8 198.24V199.85L61.71 200.55V242.76L79.14 242.55L82.78 234.57H85.02L84.18 245H46.31V243.32L52.4 242.69V200.55L46.31 199.85V198.24H67.8ZM99.8425 235.27C99.8425 238.023 100.169 240.03 100.823 241.29C101.523 242.55 102.899 243.18 104.953 243.18C107.006 243.18 109.036 241.897 111.043 239.33C113.049 236.763 114.053 234.547 114.053 232.68V213.08L108.523 212.8V211.19L123.013 210.28V242.76L128.683 243.04V244.65L114.333 245.49L114.683 238.49H113.983C111.276 243.297 107.356 245.7 102.223 245.7C94.7558 245.7 91.0225 242.107 91.0225 234.92C91.0225 227.733 91.2792 220.453 91.7925 213.08L86.6125 212.8V211.19L100.543 210.42C100.076 220.967 99.8425 229.25 99.8425 235.27ZM158.783 242.97L159.203 220.78C159.203 218.027 158.853 216.02 158.153 214.76C157.499 213.5 156.146 212.87 154.093 212.87C152.086 212.87 150.103 214.107 148.143 216.58C146.183 219.007 145.133 221.2 144.993 223.16V242.97L150.243 243.39V245H131.483V243.39L136.103 242.97V213.15L130.363 212.87V211.4L144.713 210.56L144.363 217.7H145.063C147.723 212.8 151.643 210.35 156.823 210.35C163.029 210.35 166.646 212.8 167.673 217.7C168.933 215.367 170.613 213.57 172.713 212.31C174.813 211.003 177.099 210.35 179.573 210.35C187.039 210.35 190.773 213.943 190.773 221.13C190.773 223.183 190.609 230.463 190.283 242.97L195.113 243.39V245H178.173V243.39L181.533 242.97L181.953 220.78C181.953 218.027 181.603 216.02 180.903 214.76C180.203 213.5 178.896 212.87 176.983 212.87C175.116 212.87 173.343 213.757 171.663 215.53C169.983 217.303 168.769 219.217 168.023 221.27C168.023 223.323 167.859 230.557 167.533 242.97L172.363 243.39V245H155.423V243.39L158.783 242.97ZM216.743 245H198.683V243.39L203.233 242.97V213.15L197.213 212.8V211.33L212.193 210.42V242.97L216.743 243.39V245ZM212.683 198.66C212.683 200.06 212.17 201.273 211.143 202.3C210.163 203.327 208.926 203.84 207.433 203.84C205.94 203.84 204.68 203.35 203.653 202.37C202.673 201.343 202.183 200.107 202.183 198.66C202.183 197.167 202.696 195.907 203.723 194.88C204.75 193.807 205.986 193.27 207.433 193.27C208.88 193.27 210.116 193.807 211.143 194.88C212.17 195.953 212.683 197.213 212.683 198.66ZM244.085 220.57C244.085 214.877 242.101 212.03 238.135 212.03C233.981 212.03 231.461 215.67 230.575 222.95H243.945C244.038 222.017 244.085 221.223 244.085 220.57ZM237.505 245.77C232.511 245.77 228.451 244.137 225.325 240.87C222.245 237.603 220.705 233.287 220.705 227.92C220.705 222.553 222.315 218.237 225.535 214.97C228.801 211.703 232.931 210.07 237.925 210.07C242.918 210.07 246.651 211.143 249.125 213.29C251.598 215.39 252.835 218.33 252.835 222.11C252.835 223.183 252.741 224.303 252.555 225.47H230.365V227.92C230.365 233.147 231.018 237.113 232.325 239.82C233.631 242.48 235.591 243.81 238.205 243.81C240.865 243.81 243.268 243.273 245.415 242.2C247.608 241.08 249.311 239.517 250.525 237.51C251.551 237.837 252.065 238.327 252.065 238.98C252.065 240.147 250.968 241.5 248.775 243.04C247.701 243.787 246.161 244.44 244.155 245C242.195 245.513 239.978 245.77 237.505 245.77ZM230.295 196.28C230.295 195.16 231.578 193.597 234.145 191.59C239.091 198.217 242.265 202.533 243.665 204.54C243.291 205.053 242.731 205.683 241.985 206.43C239.185 204.517 235.685 201.833 231.485 198.38C230.691 197.727 230.295 197.027 230.295 196.28ZM270.764 219.1C271.557 216.58 273.004 214.433 275.104 212.66C277.251 210.887 279.187 210 280.914 210C282.687 210 283.877 210.443 284.484 211.33C285.091 212.17 285.394 212.87 285.394 213.43C285.394 215.343 284.694 216.72 283.294 217.56C282.361 216.813 280.961 216.44 279.094 216.44C277.274 216.44 275.454 217.023 273.634 218.19C271.814 219.31 270.904 220.547 270.904 221.9V242.97L277.204 243.39V245H257.674V243.39L262.294 243.04V213.15L256.624 212.87V211.26L270.904 210.49L270.484 219.1H270.764ZM311.419 220.57C311.419 214.877 309.435 212.03 305.469 212.03C301.315 212.03 298.795 215.67 297.909 222.95H311.279C311.372 222.017 311.419 221.223 311.419 220.57ZM304.839 245.77C299.845 245.77 295.785 244.137 292.659 240.87C289.579 237.603 288.039 233.287 288.039 227.92C288.039 222.553 289.649 218.237 292.869 214.97C296.135 211.703 300.265 210.07 305.259 210.07C310.252 210.07 313.985 211.143 316.459 213.29C318.932 215.39 320.169 218.33 320.169 222.11C320.169 223.183 320.075 224.303 319.889 225.47H297.699V227.92C297.699 233.147 298.352 237.113 299.659 239.82C300.965 242.48 302.925 243.81 305.539 243.81C308.199 243.81 310.602 243.273 312.749 242.2C314.942 241.08 316.645 239.517 317.859 237.51C318.885 237.837 319.399 238.327 319.399 238.98C319.399 240.147 318.302 241.5 316.109 243.04C315.035 243.787 313.495 244.44 311.489 245C309.529 245.513 307.312 245.77 304.839 245.77ZM338.588 244.02C340.221 244.02 341.575 243.507 342.648 242.48C343.721 241.407 344.258 239.68 344.258 237.3C344.258 235.387 343.465 233.94 341.878 232.96C340.665 232.213 339.101 231.49 337.188 230.79C335.321 230.043 333.875 229.413 332.848 228.9C331.868 228.387 330.771 227.71 329.558 226.87C327.178 225.19 325.988 222.903 325.988 220.01C325.988 217.117 327.178 214.737 329.558 212.87C331.985 211.003 335.508 210.07 340.128 210.07C343.021 210.07 345.471 210.7 347.478 211.96C349.485 213.173 350.488 214.713 350.488 216.58C350.488 218.447 349.695 219.8 348.108 220.64C347.361 221.013 346.615 221.2 345.868 221.2L343.348 220.43C343.628 218.983 343.768 217.677 343.768 216.51C343.768 215.297 343.395 214.223 342.648 213.29C341.901 212.31 340.781 211.82 339.288 211.82C335.648 211.82 333.828 214.013 333.828 218.4C333.828 220.407 334.598 221.9 336.138 222.88C337.305 223.673 338.798 224.397 340.618 225.05C342.438 225.657 343.861 226.193 344.888 226.66C345.961 227.127 347.105 227.78 348.318 228.62C350.745 230.207 351.958 232.563 351.958 235.69C351.958 238.77 350.675 241.22 348.108 243.04C345.541 244.86 342.158 245.77 337.958 245.77C333.291 245.77 329.838 245 327.598 243.46C326.291 242.527 325.638 241.383 325.638 240.03C325.638 238.677 326.081 237.58 326.968 236.74C327.901 235.9 329.185 235.457 330.818 235.41C331.145 241.15 333.735 244.02 338.588 244.02Z" fill="#0066FF"/>
<path d="M389.011 246.05C384.765 246.05 381.241 244.627 378.441 241.78C375.641 238.933 374.241 234.64 374.241 228.9C374.241 223.16 375.898 218.633 379.211 215.32C382.571 212.007 387.028 210.35 392.581 210.35C395.475 210.35 398.205 211.027 400.771 212.38V194.6L394.751 194.18V192.43L409.731 191.24V243.39L415.681 243.67L415.751 245.28L401.121 246.12L401.261 239.82H400.841C399.675 241.78 398.018 243.32 395.871 244.44C393.725 245.513 391.438 246.05 389.011 246.05ZM400.701 234.22V214.97C398.835 213.243 396.455 212.38 393.561 212.38C389.875 212.38 387.355 214.083 386.001 217.49C384.881 220.477 384.321 224.28 384.321 228.9C384.321 238.84 386.538 243.81 390.971 243.81C393.585 243.81 395.848 242.69 397.761 240.45C399.721 238.21 400.701 236.133 400.701 234.22ZM441.848 220.57C441.848 214.877 439.865 212.03 435.898 212.03C431.745 212.03 429.225 215.67 428.338 222.95H441.708C441.802 222.017 441.848 221.223 441.848 220.57ZM435.268 245.77C430.275 245.77 426.215 244.137 423.088 240.87C420.008 237.603 418.468 233.287 418.468 227.92C418.468 222.553 420.078 218.237 423.298 214.97C426.565 211.703 430.695 210.07 435.688 210.07C440.682 210.07 444.415 211.143 446.888 213.29C449.362 215.39 450.598 218.33 450.598 222.11C450.598 223.183 450.505 224.303 450.318 225.47H428.128V227.92C428.128 233.147 428.782 237.113 430.088 239.82C431.395 242.48 433.355 243.81 435.968 243.81C438.628 243.81 441.032 243.273 443.178 242.2C445.372 241.08 447.075 239.517 448.288 237.51C449.315 237.837 449.828 238.327 449.828 238.98C449.828 240.147 448.732 241.5 446.538 243.04C445.465 243.787 443.925 244.44 441.918 245C439.958 245.513 437.742 245.77 435.268 245.77ZM511.171 209.93C511.171 212.543 510.587 214.783 509.421 216.65C508.254 218.517 506.667 219.94 504.661 220.92C500.974 222.693 496.517 223.58 491.291 223.58C490.404 223.58 489.167 223.533 487.581 223.44V242.69L492.901 243.32V245H473.091V243.32L478.341 242.69V200.41L472.321 199.71V198.1H486.251L494.441 197.89C500.227 197.937 504.451 198.963 507.111 200.97C509.817 202.977 511.171 205.963 511.171 209.93ZM489.541 221.41C493.367 221.41 496.307 220.383 498.361 218.33C500.414 216.23 501.441 213.453 501.441 210C501.441 206.547 500.717 204.027 499.271 202.44C497.824 200.807 495.537 199.99 492.411 199.99C490.217 199.99 488.607 200.083 487.581 200.27V221.27C488.421 221.363 489.074 221.41 489.541 221.41ZM534.388 228.62C528.975 228.62 525.568 230.043 524.168 232.89C523.562 234.103 523.258 235.62 523.258 237.44C523.258 240.567 524.332 242.387 526.478 242.9C526.805 242.993 527.155 243.04 527.528 243.04C529.022 243.04 530.515 242.27 532.008 240.73C533.502 239.143 534.295 237.113 534.388 234.64V228.62ZM523.188 221.76C522.162 222.46 521.088 222.81 519.968 222.81C518.848 222.81 517.892 222.437 517.098 221.69C516.305 220.943 515.908 219.847 515.908 218.4C515.908 216.907 516.352 215.577 517.238 214.41C518.125 213.243 519.268 212.38 520.668 211.82C523.422 210.653 526.035 210.07 528.508 210.07C534.015 210.07 537.772 211.05 539.778 213.01C541.785 214.923 542.788 217.887 542.788 221.9V242.97L548.668 243.39V244.93L535.298 245.77L534.668 239.89C532.475 243.857 528.695 245.84 523.328 245.84C520.902 245.84 518.802 245.117 517.028 243.67C515.302 242.177 514.438 240.1 514.438 237.44C514.485 233.893 516.258 231.233 519.758 229.46C523.258 227.64 528.135 226.73 534.388 226.73V220.71C534.388 217.863 533.992 215.67 533.198 214.13C532.405 212.59 530.935 211.82 528.788 211.82C526.642 211.82 525.032 212.707 523.958 214.48C523.258 215.647 522.908 216.883 522.908 218.19C522.908 219.497 523.002 220.687 523.188 221.76ZM563.615 219.1C564.409 216.58 565.855 214.433 567.955 212.66C570.102 210.887 572.039 210 573.765 210C575.539 210 576.729 210.443 577.335 211.33C577.942 212.17 578.245 212.87 578.245 213.43C578.245 215.343 577.545 216.72 576.145 217.56C575.212 216.813 573.812 216.44 571.945 216.44C570.125 216.44 568.305 217.023 566.485 218.19C564.665 219.31 563.755 220.547 563.755 221.9V242.97L570.055 243.39V245H550.525V243.39L555.145 243.04V213.15L549.475 212.87V211.26L563.755 210.49L563.335 219.1H563.615ZM599.009 245H580.949V243.39L585.499 242.97V213.15L579.479 212.8V211.33L594.459 210.42V242.97L599.009 243.39V245ZM594.949 198.66C594.949 200.06 594.435 201.273 593.409 202.3C592.429 203.327 591.192 203.84 589.699 203.84C588.205 203.84 586.945 203.35 585.919 202.37C584.939 201.343 584.449 200.107 584.449 198.66C584.449 197.167 584.962 195.907 585.989 194.88C587.015 193.807 588.252 193.27 589.699 193.27C591.145 193.27 592.382 193.807 593.409 194.88C594.435 195.953 594.949 197.213 594.949 198.66ZM615.99 244.02C617.624 244.02 618.977 243.507 620.05 242.48C621.124 241.407 621.66 239.68 621.66 237.3C621.66 235.387 620.867 233.94 619.28 232.96C618.067 232.213 616.504 231.49 614.59 230.79C612.724 230.043 611.277 229.413 610.25 228.9C609.27 228.387 608.174 227.71 606.96 226.87C604.58 225.19 603.39 222.903 603.39 220.01C603.39 217.117 604.58 214.737 606.96 212.87C609.387 211.003 612.91 210.07 617.53 210.07C620.424 210.07 622.874 210.7 624.88 211.96C626.887 213.173 627.89 214.713 627.89 216.58C627.89 218.447 627.097 219.8 625.51 220.64C624.764 221.013 624.017 221.2 623.27 221.2L620.75 220.43C621.03 218.983 621.17 217.677 621.17 216.51C621.17 215.297 620.797 214.223 620.05 213.29C619.304 212.31 618.184 211.82 616.69 211.82C613.05 211.82 611.23 214.013 611.23 218.4C611.23 220.407 612 221.9 613.54 222.88C614.707 223.673 616.2 224.397 618.02 225.05C619.84 225.657 621.264 226.193 622.29 226.66C623.364 227.127 624.507 227.78 625.72 228.62C628.147 230.207 629.36 232.563 629.36 235.69C629.36 238.77 628.077 241.22 625.51 243.04C622.944 244.86 619.56 245.77 615.36 245.77C610.694 245.77 607.24 245 605 243.46C603.694 242.527 603.04 241.383 603.04 240.03C603.04 238.677 603.484 237.58 604.37 236.74C605.304 235.9 606.587 235.457 608.22 235.41C608.547 241.15 611.137 244.02 615.99 244.02Z" fill="#F7FAFB"/>
</svg>
