<svg width="381" height="254" viewBox="0 0 381 254" fill="none" xmlns="http://www.w3.org/2000/svg">
<rect x="0.0214844" y="0.710449" width="380.978" height="252.649" rx="10" fill="#03C8D7"/>
<path d="M164.539 127.484C164.539 129.516 164.047 131.281 163.062 132.781C162.078 134.281 160.641 135.438 158.75 136.25C156.875 137.062 154.594 137.469 151.906 137.469C150.719 137.469 149.555 137.391 148.414 137.234C147.289 137.078 146.203 136.852 145.156 136.555C144.125 136.242 143.141 135.859 142.203 135.406V128.656C143.828 129.375 145.516 130.023 147.266 130.602C149.016 131.18 150.75 131.469 152.469 131.469C153.656 131.469 154.609 131.312 155.328 131C156.062 130.688 156.594 130.258 156.922 129.711C157.25 129.164 157.414 128.539 157.414 127.836C157.414 126.977 157.125 126.242 156.547 125.633C155.969 125.023 155.172 124.453 154.156 123.922C153.156 123.391 152.023 122.82 150.758 122.211C149.961 121.836 149.094 121.383 148.156 120.852C147.219 120.305 146.328 119.641 145.484 118.859C144.641 118.078 143.945 117.133 143.398 116.023C142.867 114.898 142.602 113.555 142.602 111.992C142.602 109.945 143.07 108.195 144.008 106.742C144.945 105.289 146.281 104.18 148.016 103.414C149.766 102.633 151.828 102.242 154.203 102.242C155.984 102.242 157.68 102.453 159.289 102.875C160.914 103.281 162.609 103.875 164.375 104.656L162.031 110.305C160.453 109.664 159.039 109.172 157.789 108.828C156.539 108.469 155.266 108.289 153.969 108.289C153.062 108.289 152.289 108.438 151.648 108.734C151.008 109.016 150.523 109.422 150.195 109.953C149.867 110.469 149.703 111.07 149.703 111.758C149.703 112.57 149.938 113.258 150.406 113.82C150.891 114.367 151.609 114.898 152.562 115.414C153.531 115.93 154.734 116.531 156.172 117.219C157.922 118.047 159.414 118.914 160.648 119.82C161.898 120.711 162.859 121.766 163.531 122.984C164.203 124.188 164.539 125.688 164.539 127.484ZM177.336 100.531V107.961C177.336 109.258 177.289 110.492 177.195 111.664C177.117 112.836 177.055 113.664 177.008 114.148H177.383C177.945 113.242 178.609 112.508 179.375 111.945C180.156 111.383 181.016 110.969 181.953 110.703C182.891 110.438 183.898 110.305 184.977 110.305C186.867 110.305 188.516 110.641 189.922 111.312C191.328 111.969 192.422 113.008 193.203 114.43C193.984 115.836 194.375 117.664 194.375 119.914V137H187.227V121.695C187.227 119.82 186.883 118.406 186.195 117.453C185.508 116.5 184.445 116.023 183.008 116.023C181.57 116.023 180.438 116.359 179.609 117.031C178.781 117.688 178.195 118.664 177.852 119.961C177.508 121.242 177.336 122.812 177.336 124.672V137H170.188V100.531H177.336ZM225.547 123.852C225.547 126.039 225.25 127.977 224.656 129.664C224.078 131.352 223.227 132.781 222.102 133.953C220.992 135.109 219.648 135.984 218.07 136.578C216.508 137.172 214.742 137.469 212.773 137.469C210.93 137.469 209.234 137.172 207.688 136.578C206.156 135.984 204.82 135.109 203.68 133.953C202.555 132.781 201.68 131.352 201.055 129.664C200.445 127.977 200.141 126.039 200.141 123.852C200.141 120.945 200.656 118.484 201.688 116.469C202.719 114.453 204.188 112.922 206.094 111.875C208 110.828 210.273 110.305 212.914 110.305C215.367 110.305 217.539 110.828 219.43 111.875C221.336 112.922 222.828 114.453 223.906 116.469C225 118.484 225.547 120.945 225.547 123.852ZM207.43 123.852C207.43 125.57 207.617 127.016 207.992 128.188C208.367 129.359 208.953 130.242 209.75 130.836C210.547 131.43 211.586 131.727 212.867 131.727C214.133 131.727 215.156 131.43 215.938 130.836C216.734 130.242 217.312 129.359 217.672 128.188C218.047 127.016 218.234 125.57 218.234 123.852C218.234 122.117 218.047 120.68 217.672 119.539C217.312 118.383 216.734 117.516 215.938 116.938C215.141 116.359 214.102 116.07 212.82 116.07C210.93 116.07 209.555 116.719 208.695 118.016C207.852 119.312 207.43 121.258 207.43 123.852ZM246.031 110.305C248.984 110.305 251.367 111.453 253.18 113.75C255.008 116.047 255.922 119.414 255.922 123.852C255.922 126.82 255.492 129.32 254.633 131.352C253.773 133.367 252.586 134.891 251.07 135.922C249.555 136.953 247.812 137.469 245.844 137.469C244.578 137.469 243.492 137.312 242.586 137C241.68 136.672 240.906 136.258 240.266 135.758C239.625 135.242 239.07 134.695 238.602 134.117H238.227C238.352 134.742 238.445 135.383 238.508 136.039C238.57 136.695 238.602 137.336 238.602 137.961V148.531H231.453V110.797H237.266L238.273 114.195H238.602C239.07 113.492 239.641 112.844 240.312 112.25C240.984 111.656 241.789 111.188 242.727 110.844C243.68 110.484 244.781 110.305 246.031 110.305ZM243.734 116.023C242.484 116.023 241.492 116.281 240.758 116.797C240.023 117.312 239.484 118.086 239.141 119.117C238.812 120.148 238.633 121.453 238.602 123.031V123.805C238.602 125.492 238.758 126.922 239.07 128.094C239.398 129.266 239.938 130.156 240.688 130.766C241.453 131.375 242.5 131.68 243.828 131.68C244.922 131.68 245.82 131.375 246.523 130.766C247.227 130.156 247.75 129.266 248.094 128.094C248.453 126.906 248.633 125.461 248.633 123.758C248.633 121.195 248.234 119.266 247.438 117.969C246.641 116.672 245.406 116.023 243.734 116.023ZM276.406 110.305C279.359 110.305 281.742 111.453 283.555 113.75C285.383 116.047 286.297 119.414 286.297 123.852C286.297 126.82 285.867 129.32 285.008 131.352C284.148 133.367 282.961 134.891 281.445 135.922C279.93 136.953 278.188 137.469 276.219 137.469C274.953 137.469 273.867 137.312 272.961 137C272.055 136.672 271.281 136.258 270.641 135.758C270 135.242 269.445 134.695 268.977 134.117H268.602C268.727 134.742 268.82 135.383 268.883 136.039C268.945 136.695 268.977 137.336 268.977 137.961V148.531H261.828V110.797H267.641L268.648 114.195H268.977C269.445 113.492 270.016 112.844 270.688 112.25C271.359 111.656 272.164 111.188 273.102 110.844C274.055 110.484 275.156 110.305 276.406 110.305ZM274.109 116.023C272.859 116.023 271.867 116.281 271.133 116.797C270.398 117.312 269.859 118.086 269.516 119.117C269.188 120.148 269.008 121.453 268.977 123.031V123.805C268.977 125.492 269.133 126.922 269.445 128.094C269.773 129.266 270.312 130.156 271.062 130.766C271.828 131.375 272.875 131.68 274.203 131.68C275.297 131.68 276.195 131.375 276.898 130.766C277.602 130.156 278.125 129.266 278.469 128.094C278.828 126.906 279.008 125.461 279.008 123.758C279.008 121.195 278.609 119.266 277.812 117.969C277.016 116.672 275.781 116.023 274.109 116.023ZM288.453 110.797H296.281L301.227 125.539C301.383 126.008 301.516 126.484 301.625 126.969C301.734 127.453 301.828 127.953 301.906 128.469C301.984 128.984 302.047 129.523 302.094 130.086H302.234C302.328 129.242 302.453 128.453 302.609 127.719C302.781 126.984 302.992 126.258 303.242 125.539L308.094 110.797H315.758L304.672 140.352C304 142.164 303.125 143.672 302.047 144.875C300.969 146.094 299.727 147.008 298.32 147.617C296.93 148.227 295.398 148.531 293.727 148.531C292.914 148.531 292.211 148.484 291.617 148.391C291.023 148.312 290.516 148.227 290.094 148.133V142.461C290.422 142.539 290.836 142.609 291.336 142.672C291.836 142.734 292.359 142.766 292.906 142.766C293.906 142.766 294.766 142.555 295.484 142.133C296.203 141.711 296.805 141.141 297.289 140.422C297.773 139.719 298.156 138.945 298.438 138.102L298.859 136.812L288.453 110.797Z" fill="black"/>
<circle cx="86.5" cy="118.5" r="25.5" fill="black"/>
<path d="M112 116C112 125.389 119.203 136.5 106.5 136.5C93.7975 136.5 75 125.389 75 116C75 106.611 85.2975 99 98 99C110.703 99 112 106.611 112 116Z" fill="#03C8D7"/>
<path d="M111.5 117.5C111.5 121.106 112.5 128 108 126.5C101.528 126.5 88 118.106 88 114.5C88 110.894 92.028 109.5 98.5 109.5C104.972 109.5 111.5 113.894 111.5 117.5Z" fill="black"/>
</svg>
