<svg width="381" height="254" viewBox="0 0 381 254" fill="none" xmlns="http://www.w3.org/2000/svg">
<rect y="0.710449" width="380.978" height="252.649" rx="10" fill="#212E37"/>
<path d="M38.2614 138L31.6023 114.727H36.9773L40.8295 130.898H41.0227L45.2727 114.727H49.875L54.1136 130.932H54.3182L58.1705 114.727H63.5455L56.8864 138H52.0909L47.6591 122.784H47.4773L43.0568 138H38.2614ZM70.929 127.909V138H66.0881V114.727H70.7926V123.625H70.9972C71.3911 122.595 72.0275 121.788 72.9062 121.205C73.785 120.614 74.8873 120.318 76.2131 120.318C77.4252 120.318 78.482 120.583 79.3835 121.114C80.2926 121.636 80.9972 122.39 81.4972 123.375C82.0047 124.352 82.2547 125.523 82.2472 126.886V138H77.4062V127.75C77.4138 126.674 77.1411 125.837 76.5881 125.239C76.0426 124.64 75.2775 124.341 74.2926 124.341C73.6335 124.341 73.0502 124.481 72.5426 124.761C72.0426 125.042 71.6487 125.451 71.3608 125.989C71.0805 126.519 70.9366 127.159 70.929 127.909ZM94.0114 138.341C92.2159 138.341 90.6705 137.977 89.375 137.25C88.0871 136.515 87.0947 135.477 86.3977 134.136C85.7008 132.788 85.3523 131.193 85.3523 129.352C85.3523 127.557 85.7008 125.981 86.3977 124.625C87.0947 123.269 88.0758 122.212 89.3409 121.455C90.6136 120.697 92.1061 120.318 93.8182 120.318C94.9697 120.318 96.0417 120.504 97.0341 120.875C98.0341 121.239 98.9053 121.788 99.6477 122.523C100.398 123.258 100.981 124.182 101.398 125.295C101.814 126.402 102.023 127.697 102.023 129.182V130.511H87.2841V127.511H97.4659C97.4659 126.814 97.3144 126.197 97.0114 125.659C96.7083 125.121 96.2879 124.701 95.75 124.398C95.2197 124.087 94.6023 123.932 93.8977 123.932C93.1629 123.932 92.5114 124.102 91.9432 124.443C91.3826 124.777 90.9432 125.227 90.625 125.795C90.3068 126.356 90.1439 126.981 90.1364 127.67V130.523C90.1364 131.386 90.2955 132.133 90.6136 132.761C90.9394 133.39 91.3977 133.875 91.9886 134.216C92.5795 134.557 93.2803 134.727 94.0909 134.727C94.6288 134.727 95.1212 134.652 95.5682 134.5C96.0152 134.348 96.3977 134.121 96.7159 133.818C97.0341 133.515 97.2765 133.144 97.4432 132.705L101.92 133C101.693 134.076 101.227 135.015 100.523 135.818C99.8258 136.614 98.9242 137.235 97.8182 137.682C96.7197 138.121 95.4508 138.341 94.0114 138.341ZM105.182 138V120.545H109.875V123.591H110.057C110.375 122.508 110.909 121.689 111.659 121.136C112.409 120.576 113.273 120.295 114.25 120.295C114.492 120.295 114.754 120.311 115.034 120.341C115.314 120.371 115.561 120.413 115.773 120.466V124.761C115.545 124.693 115.231 124.633 114.83 124.58C114.428 124.527 114.061 124.5 113.727 124.5C113.015 124.5 112.379 124.655 111.818 124.966C111.265 125.269 110.826 125.693 110.5 126.239C110.182 126.784 110.023 127.413 110.023 128.125V138H105.182ZM125.418 138.341C123.622 138.341 122.077 137.977 120.781 137.25C119.493 136.515 118.501 135.477 117.804 134.136C117.107 132.788 116.759 131.193 116.759 129.352C116.759 127.557 117.107 125.981 117.804 124.625C118.501 123.269 119.482 122.212 120.747 121.455C122.02 120.697 123.512 120.318 125.224 120.318C126.376 120.318 127.448 120.504 128.44 120.875C129.44 121.239 130.312 121.788 131.054 122.523C131.804 123.258 132.387 124.182 132.804 125.295C133.221 126.402 133.429 127.697 133.429 129.182V130.511H118.69V127.511H128.872C128.872 126.814 128.721 126.197 128.418 125.659C128.115 125.121 127.694 124.701 127.156 124.398C126.626 124.087 126.009 123.932 125.304 123.932C124.569 123.932 123.918 124.102 123.349 124.443C122.789 124.777 122.349 125.227 122.031 125.795C121.713 126.356 121.55 126.981 121.543 127.67V130.523C121.543 131.386 121.702 132.133 122.02 132.761C122.346 133.39 122.804 133.875 123.395 134.216C123.986 134.557 124.687 134.727 125.497 134.727C126.035 134.727 126.527 134.652 126.974 134.5C127.421 134.348 127.804 134.121 128.122 133.818C128.44 133.515 128.683 133.144 128.849 132.705L133.327 133C133.099 134.076 132.634 135.015 131.929 135.818C131.232 136.614 130.33 137.235 129.224 137.682C128.126 138.121 126.857 138.341 125.418 138.341ZM143.994 138V120.545H148.835V138H143.994ZM146.426 118.295C145.706 118.295 145.089 118.057 144.574 117.58C144.066 117.095 143.812 116.515 143.812 115.841C143.812 115.174 144.066 114.602 144.574 114.125C145.089 113.64 145.706 113.398 146.426 113.398C147.146 113.398 147.759 113.64 148.267 114.125C148.782 114.602 149.04 115.174 149.04 115.841C149.04 116.515 148.782 117.095 148.267 117.58C147.759 118.057 147.146 118.295 146.426 118.295ZM157.554 127.909V138H152.713V120.545H157.327V123.625H157.531C157.918 122.61 158.565 121.807 159.474 121.216C160.384 120.617 161.486 120.318 162.781 120.318C163.993 120.318 165.05 120.583 165.952 121.114C166.853 121.644 167.554 122.402 168.054 123.386C168.554 124.364 168.804 125.53 168.804 126.886V138H163.963V127.75C163.971 126.682 163.698 125.848 163.145 125.25C162.592 124.644 161.83 124.341 160.861 124.341C160.209 124.341 159.634 124.481 159.134 124.761C158.641 125.042 158.255 125.451 157.974 125.989C157.702 126.519 157.562 127.159 157.554 127.909ZM189.31 120.545V124.182H178.798V120.545H189.31ZM181.185 116.364H186.026V132.636C186.026 133.083 186.094 133.432 186.23 133.682C186.366 133.924 186.556 134.095 186.798 134.193C187.048 134.292 187.336 134.341 187.662 134.341C187.889 134.341 188.116 134.322 188.344 134.284C188.571 134.239 188.745 134.205 188.866 134.182L189.628 137.784C189.385 137.86 189.045 137.947 188.605 138.045C188.166 138.152 187.632 138.216 187.003 138.239C185.836 138.284 184.813 138.129 183.935 137.773C183.063 137.417 182.385 136.864 181.901 136.114C181.416 135.364 181.177 134.417 181.185 133.273V116.364ZM197.679 127.909V138H192.838V114.727H197.543V123.625H197.747C198.141 122.595 198.777 121.788 199.656 121.205C200.535 120.614 201.637 120.318 202.963 120.318C204.175 120.318 205.232 120.583 206.134 121.114C207.043 121.636 207.747 122.39 208.247 123.375C208.755 124.352 209.005 125.523 208.997 126.886V138H204.156V127.75C204.164 126.674 203.891 125.837 203.338 125.239C202.793 124.64 202.027 124.341 201.043 124.341C200.384 124.341 199.8 124.481 199.293 124.761C198.793 125.042 198.399 125.451 198.111 125.989C197.83 126.519 197.687 127.159 197.679 127.909ZM220.761 138.341C218.966 138.341 217.42 137.977 216.125 137.25C214.837 136.515 213.845 135.477 213.148 134.136C212.451 132.788 212.102 131.193 212.102 129.352C212.102 127.557 212.451 125.981 213.148 124.625C213.845 123.269 214.826 122.212 216.091 121.455C217.364 120.697 218.856 120.318 220.568 120.318C221.72 120.318 222.792 120.504 223.784 120.875C224.784 121.239 225.655 121.788 226.398 122.523C227.148 123.258 227.731 124.182 228.148 125.295C228.564 126.402 228.773 127.697 228.773 129.182V130.511H214.034V127.511H224.216C224.216 126.814 224.064 126.197 223.761 125.659C223.458 125.121 223.038 124.701 222.5 124.398C221.97 124.087 221.352 123.932 220.648 123.932C219.913 123.932 219.261 124.102 218.693 124.443C218.133 124.777 217.693 125.227 217.375 125.795C217.057 126.356 216.894 126.981 216.886 127.67V130.523C216.886 131.386 217.045 132.133 217.364 132.761C217.689 133.39 218.148 133.875 218.739 134.216C219.33 134.557 220.03 134.727 220.841 134.727C221.379 134.727 221.871 134.652 222.318 134.5C222.765 134.348 223.148 134.121 223.466 133.818C223.784 133.515 224.027 133.144 224.193 132.705L228.67 133C228.443 134.076 227.977 135.015 227.273 135.818C226.576 136.614 225.674 137.235 224.568 137.682C223.47 138.121 222.201 138.341 220.761 138.341ZM242.781 138L238.031 120.545H242.929L245.634 132.273H245.793L248.611 120.545H253.418L256.281 132.205H256.429L259.088 120.545H263.974L259.236 138H254.111L251.111 127.023H250.895L247.895 138H242.781ZM274.006 138.341C272.241 138.341 270.714 137.966 269.426 137.216C268.146 136.458 267.157 135.405 266.46 134.057C265.763 132.701 265.415 131.129 265.415 129.341C265.415 127.538 265.763 125.962 266.46 124.614C267.157 123.258 268.146 122.205 269.426 121.455C270.714 120.697 272.241 120.318 274.006 120.318C275.771 120.318 277.294 120.697 278.574 121.455C279.862 122.205 280.854 123.258 281.551 124.614C282.248 125.962 282.597 127.538 282.597 129.341C282.597 131.129 282.248 132.701 281.551 134.057C280.854 135.405 279.862 136.458 278.574 137.216C277.294 137.966 275.771 138.341 274.006 138.341ZM274.028 134.591C274.831 134.591 275.502 134.364 276.04 133.909C276.578 133.447 276.983 132.818 277.256 132.023C277.536 131.227 277.676 130.322 277.676 129.307C277.676 128.292 277.536 127.386 277.256 126.591C276.983 125.795 276.578 125.167 276.04 124.705C275.502 124.242 274.831 124.011 274.028 124.011C273.218 124.011 272.536 124.242 271.983 124.705C271.438 125.167 271.025 125.795 270.744 126.591C270.472 127.386 270.335 128.292 270.335 129.307C270.335 130.322 270.472 131.227 270.744 132.023C271.025 132.818 271.438 133.447 271.983 133.909C272.536 134.364 273.218 134.591 274.028 134.591ZM285.744 138V120.545H290.438V123.591H290.619C290.938 122.508 291.472 121.689 292.222 121.136C292.972 120.576 293.835 120.295 294.812 120.295C295.055 120.295 295.316 120.311 295.597 120.341C295.877 120.371 296.123 120.413 296.335 120.466V124.761C296.108 124.693 295.794 124.633 295.392 124.58C294.991 124.527 294.623 124.5 294.29 124.5C293.578 124.5 292.941 124.655 292.381 124.966C291.828 125.269 291.388 125.693 291.062 126.239C290.744 126.784 290.585 127.413 290.585 128.125V138H285.744ZM303.679 114.727V138H298.838V114.727H303.679ZM313.989 138.284C312.663 138.284 311.462 137.943 310.386 137.261C309.318 136.572 308.47 135.561 307.841 134.227C307.22 132.886 306.909 131.242 306.909 129.295C306.909 127.295 307.231 125.633 307.875 124.307C308.519 122.973 309.375 121.977 310.443 121.318C311.519 120.652 312.697 120.318 313.977 120.318C314.955 120.318 315.769 120.485 316.42 120.818C317.08 121.144 317.61 121.553 318.011 122.045C318.42 122.53 318.731 123.008 318.943 123.477H319.091V114.727H323.92V138H319.148V135.205H318.943C318.716 135.689 318.394 136.17 317.977 136.648C317.568 137.117 317.034 137.508 316.375 137.818C315.723 138.129 314.928 138.284 313.989 138.284ZM315.523 134.432C316.303 134.432 316.962 134.22 317.5 133.795C318.045 133.364 318.462 132.761 318.75 131.989C319.045 131.216 319.193 130.311 319.193 129.273C319.193 128.235 319.049 127.333 318.761 126.568C318.473 125.803 318.057 125.212 317.511 124.795C316.966 124.379 316.303 124.17 315.523 124.17C314.727 124.17 314.057 124.386 313.511 124.818C312.966 125.25 312.553 125.848 312.273 126.614C311.992 127.379 311.852 128.265 311.852 129.273C311.852 130.288 311.992 131.186 312.273 131.966C312.561 132.739 312.973 133.345 313.511 133.784C314.057 134.216 314.727 134.432 315.523 134.432ZM339.466 131.023V130.636C339.473 129.311 339.591 128.254 339.818 127.466C340.053 126.678 340.394 126.042 340.841 125.557C341.288 125.072 341.826 124.633 342.455 124.239C342.924 123.936 343.345 123.621 343.716 123.295C344.087 122.97 344.383 122.61 344.602 122.216C344.822 121.814 344.932 121.367 344.932 120.875C344.932 120.352 344.807 119.894 344.557 119.5C344.307 119.106 343.97 118.803 343.545 118.591C343.129 118.379 342.667 118.273 342.159 118.273C341.667 118.273 341.201 118.383 340.761 118.602C340.322 118.814 339.962 119.133 339.682 119.557C339.402 119.973 339.25 120.492 339.227 121.114H334.591C334.629 119.598 334.992 118.348 335.682 117.364C336.371 116.371 337.284 115.633 338.42 115.148C339.557 114.655 340.811 114.409 342.182 114.409C343.689 114.409 345.023 114.659 346.182 115.159C347.341 115.652 348.25 116.367 348.909 117.307C349.568 118.246 349.898 119.379 349.898 120.705C349.898 121.591 349.75 122.379 349.455 123.068C349.167 123.75 348.761 124.356 348.239 124.886C347.716 125.409 347.098 125.883 346.386 126.307C345.788 126.663 345.295 127.034 344.909 127.42C344.53 127.807 344.246 128.254 344.057 128.761C343.875 129.269 343.78 129.894 343.773 130.636V131.023H339.466ZM341.716 138.295C340.958 138.295 340.311 138.03 339.773 137.5C339.242 136.962 338.981 136.318 338.989 135.568C338.981 134.826 339.242 134.189 339.773 133.659C340.311 133.129 340.958 132.864 341.716 132.864C342.436 132.864 343.068 133.129 343.614 133.659C344.159 134.189 344.436 134.826 344.443 135.568C344.436 136.068 344.303 136.527 344.045 136.943C343.795 137.352 343.466 137.682 343.057 137.932C342.648 138.174 342.201 138.295 341.716 138.295Z" fill="#F8FAFB"/>
<a href="https://resplendent-tapioca-2d5dee.netlify.app/">
<rect fill="black" fill-opacity="0" y="0.136364" width="320.375" height="38.7273"/>
</a>
</svg>
